<mxfile host="www.draw.io" modified="2019-12-19T11:19:00.978Z" agent="Mozilla/5.0 (Windows NT 10.0; Win64; x64) AppleWebKit/537.36 (KHTML, like Gecko) Chrome/74.0.3729.108 Safari/537.36" etag="82kNBJ2QJa67VsTQFvxY" version="12.4.3" type="github" pages="1">
  <diagram id="B5suoN0dUdNP6ZTF4J-Z" name="Page-1">
    <mxGraphModel dx="1929" dy="613" grid="1" gridSize="10" guides="1" tooltips="1" connect="1" arrows="1" fold="1" page="1" pageScale="1" pageWidth="827" pageHeight="1169" math="0" shadow="0">
      <root>
        <mxCell id="0"/>
        <mxCell id="1" parent="0"/>
        <mxCell id="jj7_9U81UVuFCzgKdjh--1" value="&lt;b&gt;&lt;font style=&quot;font-size: 25px&quot;&gt;Movie&lt;/font&gt;&lt;/b&gt;&lt;br&gt;{ &quot;ID&quot;, &quot;title&quot;, &quot;runtime&quot;, &quot;dvd_release_date&quot;,&lt;br&gt;&quot;&quot;&lt;br&gt;}" style="ellipse;whiteSpace=wrap;html=1;aspect=fixed;" parent="1" vertex="1">
          <mxGeometry x="360" y="230" width="170" height="170" as="geometry"/>
        </mxCell>
        <mxCell id="jj7_9U81UVuFCzgKdjh--2" value="&lt;b&gt;&lt;font style=&quot;font-size: 25px&quot;&gt;Person&lt;/font&gt;&lt;/b&gt;&lt;br&gt;{ name }" style="ellipse;whiteSpace=wrap;html=1;aspect=fixed;" parent="1" vertex="1">
          <mxGeometry x="-60" y="360" width="100" height="100" as="geometry"/>
        </mxCell>
        <mxCell id="jj7_9U81UVuFCzgKdjh--3" value="" style="endArrow=classic;html=1;exitX=1;exitY=0.5;exitDx=0;exitDy=0;entryX=0;entryY=0.5;entryDx=0;entryDy=0;" parent="1" source="jj7_9U81UVuFCzgKdjh--2" target="jj7_9U81UVuFCzgKdjh--1" edge="1">
          <mxGeometry width="50" height="50" relative="1" as="geometry">
            <mxPoint x="100" y="470" as="sourcePoint"/>
            <mxPoint x="150" y="420" as="targetPoint"/>
          </mxGeometry>
        </mxCell>
        <mxCell id="jj7_9U81UVuFCzgKdjh--4" value="ACTS_IN { role : star ; support }" style="text;html=1;align=center;verticalAlign=middle;resizable=0;points=[];;labelBackgroundColor=#ffffff;fontSize=15;fontStyle=1" parent="jj7_9U81UVuFCzgKdjh--3" vertex="1" connectable="0">
          <mxGeometry x="-0.3077" y="1" relative="1" as="geometry">
            <mxPoint x="29.08" y="-16.03" as="offset"/>
          </mxGeometry>
        </mxCell>
        <mxCell id="jj7_9U81UVuFCzgKdjh--5" value="&lt;font style=&quot;font-size: 25px&quot;&gt;&lt;b&gt;Person&lt;/b&gt;&lt;/font&gt;&lt;br&gt;{ name }" style="ellipse;whiteSpace=wrap;html=1;aspect=fixed;" parent="1" vertex="1">
          <mxGeometry x="90" y="470" width="110" height="110" as="geometry"/>
        </mxCell>
        <mxCell id="jj7_9U81UVuFCzgKdjh--6" value="" style="endArrow=classic;html=1;exitX=0.963;exitY=0.25;exitDx=0;exitDy=0;exitPerimeter=0;entryX=0;entryY=1;entryDx=0;entryDy=0;" parent="1" source="jj7_9U81UVuFCzgKdjh--5" target="jj7_9U81UVuFCzgKdjh--1" edge="1">
          <mxGeometry width="50" height="50" relative="1" as="geometry">
            <mxPoint x="310" y="480" as="sourcePoint"/>
            <mxPoint x="360" y="430" as="targetPoint"/>
          </mxGeometry>
        </mxCell>
        <mxCell id="jj7_9U81UVuFCzgKdjh--7" value="DIRECTS" style="text;html=1;align=center;verticalAlign=middle;resizable=0;points=[];;labelBackgroundColor=#ffffff;fontSize=15;fontStyle=1" parent="jj7_9U81UVuFCzgKdjh--6" vertex="1" connectable="0">
          <mxGeometry x="-0.1804" y="1" relative="1" as="geometry">
            <mxPoint as="offset"/>
          </mxGeometry>
        </mxCell>
        <mxCell id="jj7_9U81UVuFCzgKdjh--8" value="Genre" style="ellipse;whiteSpace=wrap;html=1;aspect=fixed;" parent="1" vertex="1">
          <mxGeometry x="600" y="540" width="80" height="80" as="geometry"/>
        </mxCell>
        <mxCell id="jj7_9U81UVuFCzgKdjh--9" value="" style="endArrow=classic;html=1;exitX=1;exitY=1;exitDx=0;exitDy=0;" parent="1" source="jj7_9U81UVuFCzgKdjh--1" target="jj7_9U81UVuFCzgKdjh--8" edge="1">
          <mxGeometry width="50" height="50" relative="1" as="geometry">
            <mxPoint x="560" y="500" as="sourcePoint"/>
            <mxPoint x="580" y="470" as="targetPoint"/>
          </mxGeometry>
        </mxCell>
        <mxCell id="jj7_9U81UVuFCzgKdjh--11" value="IS_GENRE" style="text;html=1;align=center;verticalAlign=middle;resizable=0;points=[];;labelBackgroundColor=#ffffff;fontSize=15;fontStyle=1" parent="jj7_9U81UVuFCzgKdjh--9" vertex="1" connectable="0">
          <mxGeometry x="-0.2417" y="-2" relative="1" as="geometry">
            <mxPoint as="offset"/>
          </mxGeometry>
        </mxCell>
        <mxCell id="QnRTsHHEP4oAffGrpPcR-1" value="&lt;b&gt;&lt;font style=&quot;font-size: 25px&quot;&gt;Review&lt;/font&gt;&lt;/b&gt;&lt;br&gt;{ timestp, like_num, unlike_num, score,&amp;nbsp; summary, content}" style="ellipse;whiteSpace=wrap;html=1;aspect=fixed;" vertex="1" parent="1">
          <mxGeometry x="30" y="30" width="130" height="130" as="geometry"/>
        </mxCell>
        <mxCell id="QnRTsHHEP4oAffGrpPcR-2" value="&lt;font style=&quot;font-size: 25px&quot;&gt;&lt;b&gt;User&lt;/b&gt;&lt;/font&gt;&lt;br&gt;{ user_id,&lt;br&gt;user_name }" style="ellipse;whiteSpace=wrap;html=1;aspect=fixed;" vertex="1" parent="1">
          <mxGeometry x="-170" y="210" width="80" height="80" as="geometry"/>
        </mxCell>
        <mxCell id="QnRTsHHEP4oAffGrpPcR-3" value="" style="endArrow=classic;html=1;entryX=0;entryY=0.5;entryDx=0;entryDy=0;" edge="1" parent="1" source="QnRTsHHEP4oAffGrpPcR-2" target="QnRTsHHEP4oAffGrpPcR-1">
          <mxGeometry width="50" height="50" relative="1" as="geometry">
            <mxPoint x="-10" y="160" as="sourcePoint"/>
            <mxPoint x="40" y="110" as="targetPoint"/>
          </mxGeometry>
        </mxCell>
        <mxCell id="QnRTsHHEP4oAffGrpPcR-4" value="&lt;b style=&quot;font-size: 15px;&quot;&gt;WRITES_REVIEW&lt;/b&gt;" style="text;html=1;align=center;verticalAlign=middle;resizable=0;points=[];;labelBackgroundColor=#ffffff;fontSize=15;" vertex="1" connectable="0" parent="QnRTsHHEP4oAffGrpPcR-3">
          <mxGeometry x="-0.244" relative="1" as="geometry">
            <mxPoint as="offset"/>
          </mxGeometry>
        </mxCell>
        <mxCell id="QnRTsHHEP4oAffGrpPcR-5" value="" style="endArrow=classic;html=1;entryX=1;entryY=0.75;entryDx=0;entryDy=0;entryPerimeter=0;exitX=0.1;exitY=0.173;exitDx=0;exitDy=0;exitPerimeter=0;" edge="1" parent="1" source="jj7_9U81UVuFCzgKdjh--1" target="QnRTsHHEP4oAffGrpPcR-1">
          <mxGeometry width="50" height="50" relative="1" as="geometry">
            <mxPoint x="240" y="200" as="sourcePoint"/>
            <mxPoint x="290" y="150" as="targetPoint"/>
          </mxGeometry>
        </mxCell>
        <mxCell id="QnRTsHHEP4oAffGrpPcR-6" value="&lt;b style=&quot;font-size: 15px;&quot;&gt;HAS_REVIEW&lt;/b&gt;" style="text;html=1;align=center;verticalAlign=middle;resizable=0;points=[];;labelBackgroundColor=#ffffff;fontSize=15;" vertex="1" connectable="0" parent="QnRTsHHEP4oAffGrpPcR-5">
          <mxGeometry x="0.1202" y="4" relative="1" as="geometry">
            <mxPoint as="offset"/>
          </mxGeometry>
        </mxCell>
        <mxCell id="QnRTsHHEP4oAffGrpPcR-7" value="Studio" style="ellipse;whiteSpace=wrap;html=1;aspect=fixed;" vertex="1" parent="1">
          <mxGeometry x="700" y="320" width="80" height="80" as="geometry"/>
        </mxCell>
        <mxCell id="QnRTsHHEP4oAffGrpPcR-8" value="" style="endArrow=classic;html=1;entryX=0.994;entryY=0.618;entryDx=0;entryDy=0;entryPerimeter=0;" edge="1" parent="1" source="QnRTsHHEP4oAffGrpPcR-7" target="jj7_9U81UVuFCzgKdjh--1">
          <mxGeometry width="50" height="50" relative="1" as="geometry">
            <mxPoint x="590" y="380" as="sourcePoint"/>
            <mxPoint x="640" y="330" as="targetPoint"/>
          </mxGeometry>
        </mxCell>
        <mxCell id="QnRTsHHEP4oAffGrpPcR-9" value="PRODUCES" style="text;html=1;align=center;verticalAlign=middle;resizable=0;points=[];;labelBackgroundColor=#ffffff;fontSize=15;fontStyle=1" vertex="1" connectable="0" parent="QnRTsHHEP4oAffGrpPcR-8">
          <mxGeometry x="0.2953" y="3" relative="1" as="geometry">
            <mxPoint x="21.31" as="offset"/>
          </mxGeometry>
        </mxCell>
      </root>
    </mxGraphModel>
  </diagram>
</mxfile>
